<svg height="249px" width="249px" version="1.1" id="_x32_" xmlns="http://www.w3.org/2000/svg" xmlns:xlink="http://www.w3.org/1999/xlink" viewBox="-102.4 -102.4 716.80 716.80" xml:space="preserve" fill="#1eff00" stroke="#1eff00" stroke-width="9.728" transform="rotate(0)matrix(-1, 0, 0, 1, 0, 0)"><g id="SVGRepo_bgCarrier" stroke-width="0"><rect x="-102.4" y="-102.4" width="716.80" height="716.80" rx="358.4" fill="#a0dbee" strokewidth="0"></rect></g><g id="SVGRepo_tracerCarrier" stroke-linecap="round" stroke-linejoin="round" stroke="#010500" stroke-width="23.552"> <style type="text/css"> .st0{fill:#055be6;} </style> <g> <path class="st0" d="M477.19,33.677c-19.215,0-34.793,15.578-34.793,34.792c0,13.354,7.518,24.935,18.538,30.763v33.723 c0,8.245-6.69,14.942-14.942,14.942h-32.502c-8.253,0-14.95-6.697-14.95-14.942V99.231c11.02-5.828,18.546-17.409,18.546-30.763 c0-19.214-15.586-34.792-34.802-34.792c-19.215,0-34.801,15.578-34.801,34.792c0,14.048,8.328,26.106,20.302,31.624 c0,22.543,0,45.562,0,79.987c0,5.987-0.861,12.476-2.551,19.248c0,51.391-103.918,147.717-215.228,177.685 c-59.142,14.458-119.981,36.691-135.5,39.794c-26.364,5.276-15.82,37.786,23.73,43.94c30.996,4.816,31.364,17.576,62.737,17.576 c31.373,0,31.373-17.576,62.754-17.576c31.365,0,31.365,17.576,62.738,17.576s31.373-17.576,62.746-17.576 c31.381,0,31.381,17.576,62.754,17.576c36.909,0,142.366-19.332,142.366-159.055c0-124.296,0-199.877,0-220.53 C504.867,92.76,512,81.463,512,68.469C512,49.254,496.413,33.677,477.19,33.677z"></path> </g> </g><g id="SVGRepo_iconCarrier"> <style type="text/css"> .st0{fill:#055be6;} </style> <g> <path class="st0" d="M477.19,33.677c-19.215,0-34.793,15.578-34.793,34.792c0,13.354,7.518,24.935,18.538,30.763v33.723 c0,8.245-6.69,14.942-14.942,14.942h-32.502c-8.253,0-14.95-6.697-14.95-14.942V99.231c11.02-5.828,18.546-17.409,18.546-30.763 c0-19.214-15.586-34.792-34.802-34.792c-19.215,0-34.801,15.578-34.801,34.792c0,14.048,8.328,26.106,20.302,31.624 c0,22.543,0,45.562,0,79.987c0,5.987-0.861,12.476-2.551,19.248c0,51.391-103.918,147.717-215.228,177.685 c-59.142,14.458-119.981,36.691-135.5,39.794c-26.364,5.276-15.82,37.786,23.73,43.94c30.996,4.816,31.364,17.576,62.737,17.576 c31.373,0,31.373-17.576,62.754-17.576c31.365,0,31.365,17.576,62.738,17.576s31.373-17.576,62.746-17.576 c31.381,0,31.381,17.576,62.754,17.576c36.909,0,142.366-19.332,142.366-159.055c0-124.296,0-199.877,0-220.53 C504.867,92.76,512,81.463,512,68.469C512,49.254,496.413,33.677,477.19,33.677z"></path> </g> </g></svg>